<?xml version="1.0" encoding="utf-8"?>
<svg xmlns="http://www.w3.org/2000/svg" viewBox="38.14 156.771 442.439 139.193" xmlns:bx="https://boxy-svg.com" width="442.439px" height="139.193px"><defs/><path d="M 337.028 203.398 L 326.394 203.398 L 326.672 201.522 L 337.375 201.522 Z M 335.499 206.665 L 325.699 206.665 L 325.977 204.788 L 335.846 204.788 Z M 334.526 209.862 L 326.603 209.862 L 326.881 208.055 L 334.804 208.055 Z M 325.699 206.665 L 324.726 206.665 L 325.074 204.788 L 325.977 204.788 Z M 332.858 213.128 L 325.56 213.128 L 325.908 211.252 L 333.205 211.252 Z M 326.603 209.862 L 323.128 209.862 L 323.406 208.055 L 326.881 208.055 Z M 325.56 213.128 L 322.085 213.128 L 322.433 211.252 L 325.908 211.252 Z M 331.259 216.395 L 320.556 216.395 L 320.904 214.518 L 331.537 214.518 Z M 329.73 219.592 L 322.711 219.592 L 322.989 217.785 L 330.008 217.785 Z M 328.132 222.858 L 323.336 222.858 L 323.684 220.982 L 328.41 220.982 Z M 322.711 219.592 L 318.958 219.592 L 319.236 217.785 L 322.989 217.785 Z M 309.992 203.398 L 295.536 203.398 L 295.814 201.522 L 310.27 201.522 Z M 326.464 226.125 L 325.977 226.125 L 326.255 224.248 L 326.811 224.248 Z M 310.479 206.665 L 298.525 206.665 L 298.872 204.788 L 310.826 204.788 Z M 323.336 222.858 L 317.29 222.858 L 317.568 220.982 L 323.684 220.982 Z M 310.618 209.862 L 299.498 209.862 L 299.776 208.055 L 310.896 208.055 Z M 325.977 226.125 L 316.317 226.125 L 316.595 224.248 L 326.255 224.248 Z M 311.243 213.128 L 298.455 213.128 L 298.733 211.252 L 311.591 211.252 Z M 298.525 206.665 L 293.799 206.665 L 294.077 204.788 L 298.872 204.788 Z M 324.865 229.322 L 314.718 229.322 L 314.996 227.515 L 325.143 227.515 Z M 299.498 209.862 L 292.756 209.862 L 293.104 208.055 L 299.776 208.055 Z M 312.355 219.592 L 299.915 219.592 L 300.193 217.785 L 312.633 217.785 Z M 311.73 216.395 L 290.88 216.395 L 291.227 214.518 L 312.077 214.518 Z M 312.842 222.858 L 300.54 222.858 L 300.888 220.982 L 313.12 220.982 Z M 322.224 235.855 L 316.386 235.855 L 316.664 233.978 L 322.572 233.978 Z M 298.455 213.128 L 291.227 213.128 L 291.575 211.252 L 298.733 211.252 Z M 313.467 226.125 L 301.027 226.125 L 301.374 224.248 L 313.745 224.248 Z M 323.892 232.588 L 302.695 232.588 L 302.973 230.712 L 324.17 230.712 Z M 313.537 229.322 L 301.652 229.322 L 301.93 227.515 L 313.815 227.515 Z M 298.177 219.592 L 295.536 219.592 L 295.884 217.785 L 298.455 217.785 Z M 320.626 239.052 L 314.44 239.052 L 314.718 237.245 L 320.904 237.245 Z M 290.88 216.395 L 289.559 216.395 L 289.837 214.518 L 291.227 214.518 Z M 296.648 222.858 L 296.231 222.858 L 296.509 220.982 L 296.926 220.982 Z M 316.386 235.855 L 302.208 235.855 L 302.556 233.978 L 316.664 233.978 Z M 295.536 219.592 L 287.961 219.592 L 288.239 217.785 L 295.884 217.785 Z M 279.621 203.398 L 266.138 203.398 L 266.485 201.522 L 279.968 201.522 Z M 280.246 206.665 L 271.42 206.665 L 271.698 204.788 L 280.524 204.788 Z M 302.695 232.588 L 301.652 232.588 L 301.93 230.712 L 302.973 230.712 Z M 296.231 222.858 L 286.988 222.858 L 287.266 220.982 L 296.509 220.982 Z M 314.44 239.052 L 302.834 239.052 L 303.112 237.245 L 314.718 237.245 Z M 319.027 242.318 L 303.39 242.318 L 303.737 240.442 L 319.305 240.442 Z M 280.246 209.862 L 272.323 209.862 L 272.601 208.055 L 280.524 208.055 Z M 294.98 226.125 L 285.389 226.125 L 285.667 224.248 L 295.258 224.248 Z M 317.429 245.585 L 303.946 245.585 L 304.224 243.708 L 317.707 243.708 Z M 280.733 213.128 L 271.35 213.128 L 271.628 211.252 L 281.011 211.252 Z M 271.42 206.665 L 266.694 206.665 L 266.972 204.788 L 271.698 204.788 Z M 272.323 209.862 L 266.763 209.862 L 267.041 208.055 L 272.601 208.055 Z M 293.382 229.322 L 283.791 229.322 L 284.069 227.515 L 293.66 227.515 Z M 281.289 216.395 L 267.945 216.395 L 268.223 214.518 L 281.636 214.518 Z M 271.35 213.128 L 267.25 213.128 L 267.528 211.252 L 271.628 211.252 Z M 281.428 219.592 L 268.431 219.592 L 268.709 217.785 L 281.706 217.785 Z M 290.81 235.855 L 289.281 235.855 L 289.559 233.978 L 291.088 233.978 Z M 281.914 222.858 L 269.126 222.858 L 269.404 220.982 L 282.192 220.982 Z M 282.609 226.125 L 271.698 226.125 L 272.045 224.248 L 282.887 224.248 Z M 292.339 232.588 L 275.52 232.588 L 275.798 230.712 L 292.617 230.712 Z M 289.212 239.052 L 287.335 239.052 L 287.613 237.245 L 289.49 237.245 Z M 282.609 229.322 L 273.018 229.322 L 273.296 227.515 L 282.887 227.515 Z M 271.698 226.125 L 269.613 226.125 L 269.891 224.248 L 272.045 224.248 Z M 289.281 235.855 L 270.794 235.855 L 271.072 233.978 L 289.559 233.978 Z M 273.018 229.322 L 270.169 229.322 L 270.516 227.515 L 273.296 227.515 Z M 275.52 232.588 L 270.794 232.588 L 271.072 230.712 L 275.798 230.712 Z M 287.335 239.052 L 271.35 239.052 L 271.628 237.245 L 287.613 237.245 Z M 287.544 242.318 L 271.976 242.318 L 272.254 240.442 L 287.822 240.442 Z M 286.432 245.585 L 272.532 245.585 L 272.81 243.708 L 286.779 243.708 Z" style="fill: rgb(162, 135, 244); text-wrap-mode: nowrap;"/><g id="Layer_1" transform="matrix(0.5061, 0, 0, 0.5061, 185.687521, 165.610692)" style=""><g transform="matrix(1, 0, 0, 1, -344.964366, -206.336813)"><g><g><g><path class="st0" d="M198.8,396.8c13.5-57.2,27-114.4,40.4-171.5c-19.5,37.9-39.1,75.8-58.6,113.7 c-21.3-27.6-42.5-55.2-63.8-82.8c-12.7,55.5-25.5,111-38.2,166.4c17.7-36,35.5-71.9,53.2-107.9 C154.1,342,176.5,369.4,198.8,396.8z" style="fill: rgb(242, 85, 37);"/><path class="st0" d="M70.7,444.9l44.8-195.1l64.7,84L247,204.1l-46.9,198.8l-67.8-83.2L70.7,444.9z M118.2,262.4L86.6,400.1 l44.7-90.6l66.1,81.1l34-144.3L181.1,344L118.2,262.4z" style="fill: rgb(242, 85, 37);"/></g></g><g><path class="st0" d="M249.1,343.9h46.1l-15.3,16c-17.5-0.1-34.9-0.1-52.4-0.2l18.5-80.3c21.3,0.1,49.4,0.1,70.6,0.2l-15.3,16.1 h-41.7l-4.5,17.9h34l-12,12.6c-7.5,0-16.3,0-23.8,0C251.8,332.2,250.4,338,249.1,343.9z" style="fill: rgb(242, 85, 37);"/><path class="st0" d="M281,362.7l-57-0.2l19.7-85.8l79.2,0.2l-20.6,21.6h-40.7l-3.1,12.4h36.8L278.1,329h-22.8l-2.8,12.2h49.1 L281,362.7z M230.9,357.1l47.8,0.2l10-10.5h-43.1l5.4-23.2h24.8l6.8-7.1h-31.1l5.9-23.4H300l10.1-10.6l-62-0.2L230.9,357.1z" style="fill: rgb(242, 85, 37);"/></g><g><path class="st0" d="M361.9,279.7h-23.7l-16.9,17.7h35.2c9.6,0,13.3,4.5,11.6,11.9c-1.7,7.5-7.5,11.9-17.1,11.9h-35.3l-9,38.8 h22.5l5-21.5H347l9.7,21.5h24l-11.6-25.4c11.2-4.7,18.9-13.4,21.7-25.4C395,291,383.9,279.7,361.9,279.7z" style="fill: rgb(242, 85, 37);"/><path class="st0" d="M385,362.8h-30.1l-9.7-21.5h-8.7l-5,21.5h-28.2l10.2-44.3h37.4c8.1,0,12.9-3.3,14.4-9.8 c0.6-2.7,0.4-4.7-0.6-6c-1.3-1.7-4.2-2.5-8.3-2.5h-41.7l22.2-23.2h24.9c12.7,0,22.2,3.6,27.7,10.5c4.6,5.8,5.9,13.6,3.9,22.5 c-2.7,11.6-10,20.8-20.7,26.1L385,362.8z M358.5,357.3h17.9l-11-24.1l2.6-1.1c10.6-4.5,17.6-12.6,20.1-23.4 c1.7-7.3,0.7-13.4-2.8-17.9c-4.4-5.5-12.4-8.4-23.4-8.4h-22.5l-11.6,12.2h28.8c5.9,0,10.1,1.6,12.6,4.6 c2.2,2.7,2.7,6.3,1.7,10.7c-2.1,9.1-9.1,14.1-19.8,14.1H318l-7.7,33.3h16.9l5-21.5h16.6L358.5,357.3z" style="fill: rgb(242, 85, 37);"/></g><g><path class="st0" d="M438.6,360h-22l-15.9-80.4h24.2l9.8,52.8l34.7-52.8h22.2L438.6,360z" style="fill: rgb(242, 85, 37);"/><path class="st0" d="M440,362.8h-25.8l-17-85.9h29.9l9,48.3l31.8-48.3h28.8L440,362.8z M418.8,357.3h18.3l49.4-74.9h-15.6 l-37.6,57.3l-10.7-57.3H404L418.8,357.3z" style="fill: rgb(242, 85, 37);"/></g><g><path class="st2" d="M198.8,396.8c13.5-57.2,27-114.4,40.4-171.5c-19.5,37.9-39.1,75.8-58.6,113.7 c-21.3-27.6-42.5-55.2-63.8-82.8c-12.7,55.5-25.5,111-38.2,166.4c17.7-36,35.5-71.9,53.2-107.9 C154.1,342,176.5,369.4,198.8,396.8z" style="fill: none; stroke: rgb(226, 152, 5); stroke-miterlimit: 10; stroke-width: 1.7206px;"/></g><path class="st2" d="M438.6,360h-22l-15.9-80.4h24.2l9.8,52.8l34.7-52.8h22.2L438.6,360z" style="fill: none; stroke: rgb(226, 152, 5); stroke-miterlimit: 10; stroke-width: 1.7206px;"/><path class="st2" d="M249.1,343.9h46.1l-15.3,16c-17.5-0.1-34.9-0.1-52.4-0.2l18.5-80.3c21.3,0.1,49.4,0.1,70.6,0.2l-15.3,16.1 h-41.7l-4.5,17.9h34l-12,12.6c-7.5,0-16.3,0-23.8,0C251.8,332.2,250.4,338,249.1,343.9z" style="fill: none; stroke: rgb(226, 152, 5); stroke-miterlimit: 10; stroke-width: 1.7206px;"/><path class="st2" d="M361.9,279.9h-23.7l-16.9,17.7h35.2c9.6,0,13.3,4.5,11.6,11.9c-1.7,7.5-7.5,11.9-17.1,11.9h-35.3l-9,38.8 h22.5l5-21.5H347l9.7,21.5h24l-11.6-25.4c11.2-4.7,18.9-13.4,21.7-25.4C395,291.2,383.9,279.9,361.9,279.9z" style="fill: none; stroke: rgb(226, 152, 5); stroke-miterlimit: 10; stroke-width: 1.7206px;"/></g></g></g><path d="M 366.334 210.136 L 361.608 210.136 L 361.956 208.259 L 366.612 208.259 L 366.334 210.136 Z M 364.597 203.603 L 346.735 203.603 L 347.013 201.796 L 364.944 201.796 L 364.597 203.603 Z M 365.222 206.869 L 345.206 206.869 L 345.484 204.993 L 365.5 204.993 L 365.222 206.869 Z M 367.516 216.599 L 353.407 216.599 L 353.685 214.723 L 367.794 214.723 L 367.516 216.599 Z M 361.608 210.136 L 343.608 210.136 L 343.886 208.259 L 361.956 208.259 L 361.608 210.136 Z M 366.89 213.333 L 341.384 213.333 L 341.662 211.526 L 367.168 211.526 L 366.89 213.333 Z M 368.002 219.866 L 353.963 219.866 L 354.311 217.989 L 368.28 217.989 L 368.002 219.866 Z M 369.114 223.063 L 355.492 223.063 L 355.84 221.256 L 369.392 221.256 L 369.114 223.063 Z M 369.74 226.329 L 358.55 226.329 L 358.828 224.453 L 370.087 224.453 L 369.74 226.329 Z M 370.226 229.596 L 358.481 229.596 L 358.759 227.719 L 370.574 227.719 L 370.226 229.596 Z M 355.492 223.063 L 355.075 223.063 L 355.353 221.256 L 355.84 221.256 L 355.492 223.063 Z M 372.52 239.326 L 371.408 239.326 L 371.755 237.449 L 372.798 237.449 L 372.52 239.326 Z M 371.964 236.059 L 364.041 236.059 L 364.388 234.183 L 372.242 234.183 L 371.964 236.059 Z M 351.183 216.599 L 343.469 216.599 L 343.816 214.723 L 351.531 214.723 L 351.183 216.599 Z M 358.55 226.329 L 355.701 226.329 L 355.979 224.453 L 358.828 224.453 L 358.55 226.329 Z M 371.338 232.793 L 354.658 232.793 L 354.936 230.986 L 371.616 230.986 L 371.338 232.793 Z M 349.585 219.866 L 347.708 219.866 L 347.986 217.989 L 349.863 217.989 L 349.585 219.866 Z M 343.469 216.599 L 339.855 216.599 L 340.133 214.723 L 343.816 214.723 L 343.469 216.599 Z M 371.408 239.326 L 358.481 239.326 L 358.759 237.449 L 371.755 237.449 L 371.408 239.326 Z M 347.708 219.866 L 338.256 219.866 L 338.534 217.989 L 347.986 217.989 L 347.708 219.866 Z M 373.145 242.523 L 359.037 242.523 L 359.315 240.716 L 373.423 240.716 L 373.145 242.523 Z M 374.188 245.789 L 359.662 245.789 L 359.94 243.913 L 374.535 243.913 L 374.188 245.789 Z M 347.986 223.063 L 336.102 223.063 L 336.38 221.256 L 348.264 221.256 L 347.986 223.063 Z M 358.481 229.596 L 332.835 229.596 L 333.183 227.719 L 358.759 227.719 L 358.481 229.596 Z M 345.832 226.329 L 334.503 226.329 L 334.781 224.453 L 346.11 224.453 L 345.832 226.329 Z M 364.041 236.059 L 336.936 236.059 L 337.214 234.183 L 364.388 234.183 L 364.041 236.059 Z M 354.658 232.793 L 330.75 232.793 L 331.028 230.986 L 354.936 230.986 L 354.658 232.793 Z M 336.936 236.059 L 329.152 236.059 L 329.43 234.183 L 337.214 234.183 L 336.936 236.059 Z M 339.438 239.326 L 327.623 239.326 L 327.901 237.449 L 339.785 237.449 L 339.438 239.326 Z M 337.353 242.523 L 325.955 242.523 L 326.302 240.716 L 337.631 240.716 L 337.353 242.523 Z M 335.754 245.789 L 331.167 245.789 L 331.445 243.913 L 336.032 243.913 L 335.754 245.789 Z M 331.167 245.789 L 323.8 245.789 L 324.078 243.913 L 331.445 243.913 L 331.167 245.789 Z" style="fill: rgb(162, 135, 244); text-wrap-mode: nowrap;"/><path d="M 418.967 203.018 L 416.604 203.018 L 416.882 201.211 L 419.245 201.211 L 418.967 203.018 Z M 423.832 206.285 L 401.662 206.285 L 402.009 204.408 L 424.11 204.408 L 423.832 206.285 Z M 426.682 212.748 L 412.226 212.748 L 412.504 210.941 L 426.96 210.941 L 426.682 212.748 Z M 426.195 209.551 L 402.982 209.551 L 403.26 207.675 L 426.473 207.675 L 426.195 209.551 Z M 426.751 216.015 L 412.851 216.015 L 413.129 214.138 L 427.099 214.138 L 426.751 216.015 Z M 416.604 203.018 L 389.499 203.018 L 389.777 201.211 L 416.882 201.211 L 416.604 203.018 Z M 425.709 219.281 L 410.627 219.281 L 410.975 217.405 L 426.056 217.405 L 425.709 219.281 Z M 423.624 222.478 L 398.951 222.478 L 399.229 220.671 L 423.902 220.671 L 423.624 222.478 Z M 401.662 206.285 L 382.897 206.285 L 383.175 204.408 L 402.009 204.408 L 401.662 206.285 Z M 389.499 203.018 L 383.453 203.018 L 383.731 201.211 L 389.777 201.211 L 389.499 203.018 Z M 402.982 209.551 L 382.48 209.551 L 382.827 207.675 L 403.26 207.675 L 402.982 209.551 Z M 419.176 225.745 L 396.727 225.745 L 397.005 223.868 L 419.523 223.868 L 419.176 225.745 Z M 416.604 232.208 L 409.932 232.208 L 410.21 230.401 L 416.882 230.401 L 416.604 232.208 Z M 415.284 229.011 L 399.368 229.011 L 399.646 227.135 L 415.562 227.135 L 415.284 229.011 Z M 417.647 235.475 L 408.681 235.475 L 408.959 233.598 L 417.994 233.598 L 417.647 235.475 Z M 395.129 212.748 L 381.924 212.748 L 382.202 210.941 L 395.407 210.941 L 395.129 212.748 Z M 418.828 238.741 L 412.087 238.741 L 412.365 236.865 L 419.176 236.865 L 418.828 238.741 Z M 409.932 232.208 L 402.565 232.208 L 402.843 230.401 L 410.21 230.401 L 409.932 232.208 Z M 394.712 216.015 L 381.437 216.015 L 381.715 214.138 L 394.99 214.138 L 394.712 216.015 Z M 421.052 245.205 L 413.894 245.205 L 414.241 243.328 L 421.33 243.328 L 421.052 245.205 Z M 420.566 241.938 L 405.345 241.938 L 405.623 240.131 L 420.844 240.131 L 420.566 241.938 Z M 408.681 235.475 L 403.33 235.475 L 403.608 233.598 L 408.959 233.598 L 408.681 235.475 Z M 394.086 219.281 L 380.881 219.281 L 381.159 217.405 L 394.434 217.405 L 394.086 219.281 Z M 412.087 238.741 L 404.233 238.741 L 404.581 236.865 L 412.365 236.865 L 412.087 238.741 Z M 398.951 222.478 L 380.186 222.478 L 380.464 220.671 L 399.229 220.671 L 398.951 222.478 Z M 413.894 245.205 L 406.596 245.205 L 406.944 243.328 L 414.241 243.328 L 413.894 245.205 Z M 396.727 225.745 L 379.839 225.745 L 380.186 223.868 L 397.005 223.868 L 396.727 225.745 Z M 399.368 229.011 L 379.422 229.011 L 379.7 227.135 L 399.646 227.135 L 399.368 229.011 Z M 392.001 232.208 L 382.897 232.208 L 383.175 230.401 L 392.279 230.401 L 392.001 232.208 Z M 391.654 235.475 L 381.576 235.475 L 381.854 233.598 L 391.932 233.598 L 391.654 235.475 Z M 391.028 238.741 L 384.912 238.741 L 385.26 236.865 L 391.306 236.865 L 391.028 238.741 Z M 382.897 232.208 L 378.727 232.208 L 379.074 230.401 L 383.175 230.401 L 382.897 232.208 Z M 381.576 235.475 L 378.171 235.475 L 378.449 233.598 L 381.854 233.598 L 381.576 235.475 Z M 390.125 245.205 L 386.789 245.205 L 387.067 243.328 L 390.403 243.328 L 390.125 245.205 Z M 384.912 238.741 L 377.754 238.741 L 378.032 236.865 L 385.26 236.865 L 384.912 238.741 Z M 390.542 241.938 L 377.198 241.938 L 377.476 240.131 L 390.82 240.131 L 390.542 241.938 Z M 386.789 245.205 L 376.781 245.205 L 377.059 243.328 L 387.067 243.328 L 386.789 245.205 Z" style="fill: rgb(162, 135, 244); text-wrap-mode: nowrap;"/><path d="M 471.994 203.408 L 465.114 203.408 L 465.392 201.601 L 472.272 201.601 L 471.994 203.408 Z M 471.438 206.674 L 468.658 206.674 L 468.936 204.798 L 471.786 204.798 L 471.438 206.674 Z M 468.658 206.674 L 441.553 206.674 L 441.831 204.798 L 468.936 204.798 L 468.658 206.674 Z M 465.114 203.408 L 438.009 203.408 L 438.287 201.601 L 465.392 201.601 L 465.114 203.408 Z M 463.029 222.868 L 453.229 222.868 L 453.507 221.061 L 463.307 221.061 L 463.029 222.868 Z M 463.585 219.671 L 445.445 219.671 L 445.723 217.794 L 463.863 217.794 L 463.585 219.671 Z M 462.542 226.134 L 456.287 226.134 L 456.565 224.258 L 462.82 224.258 L 462.542 226.134 Z M 438.009 203.408 L 431.476 203.408 L 431.754 201.601 L 438.287 201.601 L 438.009 203.408 Z M 441.553 206.674 L 431.059 206.674 L 431.337 204.798 L 441.831 204.798 L 441.553 206.674 Z M 443.916 209.941 L 432.171 209.941 L 432.518 208.064 L 444.194 208.064 L 443.916 209.941 Z M 443.43 213.138 L 438.982 213.138 L 439.26 211.331 L 443.708 211.331 L 443.43 213.138 Z M 442.874 216.404 L 441.206 216.404 L 441.484 214.528 L 443.152 214.528 L 442.874 216.404 Z M 432.171 209.941 L 430.433 209.941 L 430.711 208.064 L 432.518 208.064 L 432.171 209.941 Z M 438.982 213.138 L 429.947 213.138 L 430.225 211.331 L 439.26 211.331 L 438.982 213.138 Z M 441.206 216.404 L 429.391 216.404 L 429.669 214.528 L 441.484 214.528 L 441.206 216.404 Z M 453.229 222.868 L 428.348 222.868 L 428.626 221.061 L 453.507 221.061 L 453.229 222.868 Z M 445.445 219.671 L 428.904 219.671 L 429.182 217.794 L 445.723 217.794 L 445.445 219.671 Z M 456.287 226.134 L 429.113 226.134 L 429.46 224.258 L 456.565 224.258 L 456.287 226.134 Z M 466.295 239.131 L 441.97 239.131 L 442.318 237.254 L 466.643 237.254 L 466.295 239.131 Z M 465.322 245.594 L 456.009 245.594 L 456.287 243.718 L 465.6 243.718 L 465.322 245.594 Z M 465.878 242.328 L 444.542 242.328 L 444.82 240.521 L 466.226 240.521 L 465.878 242.328 Z M 440.719 229.401 L 429.043 229.401 L 429.321 227.524 L 441.067 227.524 L 440.719 229.401 Z M 429.113 226.134 L 427.862 226.134 L 428.14 224.258 L 429.46 224.258 L 429.113 226.134 Z M 439.746 235.864 L 434.603 235.864 L 434.951 233.988 L 440.024 233.988 L 439.746 235.864 Z M 440.302 232.598 L 426.819 232.598 L 427.097 230.791 L 440.58 230.791 L 440.302 232.598 Z M 429.043 229.401 L 427.306 229.401 L 427.653 227.524 L 429.321 227.524 L 429.043 229.401 Z M 456.009 245.594 L 428.835 245.594 L 429.113 243.718 L 456.287 243.718 L 456.009 245.594 Z M 434.603 235.864 L 426.333 235.864 L 426.611 233.988 L 434.951 233.988 L 434.603 235.864 Z M 441.97 239.131 L 425.777 239.131 L 426.124 237.254 L 442.318 237.254 L 441.97 239.131 Z M 444.542 242.328 L 425.36 242.328 L 425.638 240.521 L 444.82 240.521 L 444.542 242.328 Z M 428.835 245.594 L 424.804 245.594 L 425.082 243.718 L 429.113 243.718 L 428.835 245.594 Z" style="fill: rgb(162, 135, 244); text-wrap-mode: nowrap;"/></svg>